<?xml version="1.0" encoding="UTF-8"?>
<svg version="1.1" xmlns="http://www.w3.org/2000/svg" width="512" height="512">
<path d="M0 0 C2.10052024 1.94050688 4.17925573 3.90277572 6.25 5.875 C7.148396 6.73037354 7.148396 6.73037354 8.06494141 7.60302734 C16.95711736 16.13263199 24.95107735 24.95070671 32.25 34.875 C32.88929443 35.73109863 32.88929443 35.73109863 33.54150391 36.60449219 C40.05799189 45.34738527 45.83579021 54.41451241 51.25 63.875 C51.90613281 64.99777344 52.56226563 66.12054688 53.23828125 67.27734375 C67.46304627 92.61966058 76.10098331 121.20513238 80.25 149.875 C80.36714355 150.67228516 80.48428711 151.46957031 80.60498047 152.29101562 C89.65839898 217.02363057 71.21986412 282.90162173 32.25 334.875 C29.34477475 338.62951633 26.35150374 342.28137574 23.25 345.875 C22.59257812 346.64328125 21.93515625 347.4115625 21.2578125 348.203125 C10.02118049 361.00864525 -2.00599955 372.8010276 -15.75 382.875 C-16.60392334 383.51211914 -16.60392334 383.51211914 -17.47509766 384.16210938 C-26.21950273 390.68035212 -35.28752338 396.45965189 -44.75 401.875 C-45.87277344 402.53113281 -46.99554688 403.18726563 -48.15234375 403.86328125 C-73.49466058 418.08804627 -102.08013238 426.72598331 -130.75 430.875 C-131.54728516 430.99214355 -132.34457031 431.10928711 -133.16601562 431.22998047 C-197.89863057 440.28339898 -263.77662173 421.84486412 -315.75 382.875 C-319.50451633 379.96977475 -323.15637574 376.97650374 -326.75 373.875 C-327.90242188 372.88886719 -327.90242188 372.88886719 -329.078125 371.8828125 C-341.88364525 360.64618049 -353.6760276 348.61900045 -363.75 334.875 C-364.38711914 334.02107666 -364.38711914 334.02107666 -365.03710938 333.14990234 C-371.55535212 324.40549727 -377.33465189 315.33747662 -382.75 305.875 C-383.40613281 304.75222656 -384.06226563 303.62945312 -384.73828125 302.47265625 C-398.96304627 277.13033942 -407.60098331 248.54486762 -411.75 219.875 C-411.86714355 219.07771484 -411.98428711 218.28042969 -412.10498047 217.45898438 C-421.08940847 153.21965666 -402.91492635 87.82529899 -364.75 35.875 C-358.57292336 27.78522451 -351.76557429 20.24102851 -344.75 12.875 C-344.17975098 12.27606934 -343.60950195 11.67713867 -343.02197266 11.06005859 C-334.49236801 2.16788264 -325.67429329 -5.82607735 -315.75 -13.125 C-315.17926758 -13.55119629 -314.60853516 -13.97739258 -314.02050781 -14.41650391 C-305.27761473 -20.93299189 -296.21048759 -26.71079021 -286.75 -32.125 C-285.62722656 -32.78113281 -284.50445312 -33.43726562 -283.34765625 -34.11328125 C-258.00533942 -48.33804627 -229.41986762 -56.97598331 -200.75 -61.125 C-199.95271484 -61.24214355 -199.15542969 -61.35928711 -198.33398438 -61.47998047 C-126.89221899 -71.47173195 -53.34144633 -48.09242103 0 0 Z " fill="#5EDD60" transform="translate(421.75,71.125)"/>
<path d="M0 0 C2.5719273 1.42896108 5.05801288 2.9478179 7.54125977 4.52563477 C8.37915039 5.03481445 9.21704102 5.54399414 10.08032227 6.06860352 C26.21184558 16.03219145 26.21184558 16.03219145 28.54125977 21.90063477 C30.62902897 33.03540388 18.28373476 45.9487402 12.29821777 54.82122803 C9.8300604 58.48112183 7.37431084 62.14930356 4.92016602 65.81860352 C4.44243744 66.53280457 3.96470886 67.24700562 3.47250366 67.98284912 C-0.00612626 73.19512699 -3.39979374 78.4537759 -6.70874023 83.77563477 C-11.25711166 91.0786882 -15.98448027 98.25187898 -20.77124023 105.40063477 C-27.73776411 115.80579324 -34.65064968 126.24435849 -41.52124023 136.71313477 C-41.9959375 137.43625854 -42.47063477 138.15938232 -42.9597168 138.90441895 C-44.92003423 141.89066447 -46.88017473 144.87702596 -48.83996582 147.86361694 C-54.2707649 156.13954327 -59.70795131 164.4112647 -65.14743042 172.68148804 C-66.71849254 175.07042722 -68.28895162 177.45976199 -69.859375 179.84912109 C-72.26088546 183.50201492 -74.66647708 187.15219348 -77.07452393 190.80078125 C-78.00270687 192.20883301 -78.9294081 193.61786255 -79.85467529 195.02783203 C-81.19204296 197.06575944 -82.53391592 199.10065443 -83.87670898 201.13500977 C-84.46190056 202.03041473 -84.46190056 202.03041473 -85.05891418 202.94390869 C-92.26536496 213.82445861 -92.26536496 213.82445861 -98.58374023 216.71313477 C-99.43194336 217.11145508 -100.28014648 217.50977539 -101.15405273 217.92016602 C-108.03666192 220.84819128 -115.88404685 221.03784584 -122.89599609 218.24047852 C-136.10733591 211.33337812 -146.94719357 197.61487317 -157.27124023 187.15063477 C-159.73872933 184.65532321 -162.20777174 182.16159754 -164.67985535 179.6708374 C-166.20430602 178.13433694 -167.72608073 176.59517473 -169.24458313 175.05279541 C-173.28053334 170.9790934 -177.41310474 167.09339576 -181.76435852 163.35739136 C-183.85345774 161.56127362 -185.86172909 159.69935176 -187.83374023 157.77563477 C-188.48084961 157.15430664 -189.12795898 156.53297852 -189.79467773 155.89282227 C-192.52368552 152.62570027 -193.37613047 149.65789098 -193.83374023 145.46313477 C-193.01626222 137.69709362 -186.43974967 132.57674177 -181.14624023 127.33813477 C-180.41211914 126.5962793 -179.67799805 125.85442383 -178.92163086 125.09008789 C-167.46476206 113.67388234 -167.46476206 113.67388234 -161.39624023 113.40063477 C-154.87477175 114.22875775 -151.03891689 116.94713679 -146.58374023 121.65063477 C-143.71877886 124.65742591 -140.80837673 127.49915242 -137.66186523 130.20532227 C-133.2502623 134.02020168 -129.16738871 138.11537 -125.08374023 142.27563477 C-123.68241276 143.70239468 -122.27887673 145.12698984 -120.87280273 146.54907227 C-120.26388184 147.16959473 -119.65496094 147.79011719 -119.02758789 148.42944336 C-117.50750562 149.99525439 -117.50750562 149.99525439 -115.45874023 150.90063477 C-115.24604492 150.25352539 -115.03334961 149.60641602 -114.81420898 148.93969727 C-112.93143649 144.71838027 -110.37002938 141.0877129 -107.77124023 137.27563477 C-106.4913349 135.37674351 -105.21278847 133.4769359 -103.93530273 131.57641602 C-103.2240625 130.51890137 -102.51282227 129.46138672 -101.7800293 128.37182617 C-97.35360527 121.76778377 -93.00722004 115.11046954 -88.64624023 108.46313477 C-87.65826792 106.95812804 -86.67022997 105.45316439 -85.68212891 103.94824219 C-84.15867845 101.62795264 -82.635259 99.30764285 -81.11204529 96.98719788 C-75.44207265 88.35014439 -69.76317239 79.71896974 -64.08374023 71.08813477 C-62.0042978 67.92798862 -59.9248739 64.76783027 -57.84545898 61.60766602 C-57.32702423 60.81980209 -56.80858948 60.03193817 -56.27444458 59.22019958 C-52.95766988 54.17946513 -49.64190584 49.13806726 -46.32684326 44.09620667 C-44.06156548 40.65098139 -41.79601611 37.20593475 -39.53045654 33.76089478 C-38.45874933 32.13107927 -37.38717094 30.50117906 -36.31573486 28.8711853 C-33.89532343 25.18902297 -31.47332868 21.50793995 -29.04638672 17.83007812 C-27.3846368 15.31134493 -25.73337796 12.78631291 -24.09179688 10.25439453 C-23.38788818 9.17730225 -22.68397949 8.10020996 -21.95874023 6.99047852 C-21.35932617 6.06614014 -20.75991211 5.14180176 -20.14233398 4.18945312 C-14.94340938 -2.87840044 -7.72904351 -3.45585175 0 0 Z " fill="#FEFEFE" transform="translate(338.458740234375,147.099365234375)"/>
</svg>
